<?xml version="1.0" encoding="UTF-8" standalone="no"?>
<!-- Created with Inkscape (http://www.inkscape.org/) -->

<svg
   width="52.87672mm"
   height="74.490005mm"
   viewBox="0 0 52.87672 74.490005"
   version="1.1"
   id="svg5"
   inkscape:version="1.1.1 (3bf5ae0d25, 2021-09-20)"
   sodipodi:docname="regals.svg"
   xmlns:inkscape="http://www.inkscape.org/namespaces/inkscape"
   xmlns:sodipodi="http://sodipodi.sourceforge.net/DTD/sodipodi-0.dtd"
   xmlns="http://www.w3.org/2000/svg"
   xmlns:svg="http://www.w3.org/2000/svg">
  <sodipodi:namedview
     id="namedview7"
     pagecolor="#ffffff"
     bordercolor="#666666"
     borderopacity="1.0"
     inkscape:pageshadow="2"
     inkscape:pageopacity="0.0"
     inkscape:pagecheckerboard="0"
     inkscape:document-units="mm"
     showgrid="false"
     fit-margin-top="0"
     fit-margin-left="0"
     fit-margin-right="0"
     fit-margin-bottom="0"
     inkscape:zoom="1"
     inkscape:cx="57"
     inkscape:cy="211.5"
     inkscape:window-width="1920"
     inkscape:window-height="1027"
     inkscape:window-x="-8"
     inkscape:window-y="-8"
     inkscape:window-maximized="1"
     inkscape:current-layer="g836" />
  <defs
     id="defs2">
    <clipPath
       clipPathUnits="userSpaceOnUse"
       id="clipPath840">
      <path
         d="M 0,800 H 800 V 0 H 0 Z"
         id="path838" />
    </clipPath>
    <clipPath
       clipPathUnits="userSpaceOnUse"
       id="clipPath1096">
      <path
         d="M 0,800 H 800 V 0 H 0 Z"
         id="path1094" />
    </clipPath>
  </defs>
  <g
     inkscape:label="Capa 1"
     inkscape:groupmode="layer"
     id="layer1"
     transform="translate(-89.269436,-15.503626)">
    <g
       id="g836"
       clip-path="url(#clipPath840)"
       transform="matrix(0.35277777,0,0,-0.35277777,-54.778705,286.09998)">
      <g
         id="g878"
         transform="translate(483.2722,560.9358)"
         style="stroke-width:1.00063;stroke-miterlimit:4;stroke-dasharray:none">
        <path
           d="m 0,0 c 2.329,2.787 4.606,5.54 6.916,8.266 1.19,1.404 2.451,2.748 3.658,4.138 1.819,2.096 3.586,4.237 5.437,6.305 2.331,2.604 4.77,5.113 7.078,7.737 2.415,2.744 4.707,5.597 7.095,8.365 4.237,4.909 8.58,9.729 12.739,14.704 3.284,3.928 6.446,7.967 9.502,12.075 3.682,4.947 6.936,10.179 10.004,15.536 2.118,3.699 3.958,7.506 5.405,11.501 2.02,5.577 2.747,11.44 3.046,17.287 0.482,9.391 -0.02,18.776 -1.232,28.118 -0.546,4.207 -1.022,8.412 -1.937,12.567 -1.791,8.125 -4.709,15.796 -9.048,22.893 -2.918,4.773 -6.394,9.131 -10.287,13.158 -5.86,6.06 -12.506,10.977 -20.428,13.994 -2.887,1.1 -5.815,2.238 -8.827,2.833 -5.176,1.021 -10.427,1.672 -15.66,2.386 -1.573,0.214 -3.2,0.267 -4.783,0.141 -3.19,-0.253 -6.364,-0.69 -9.547,-1.035 -6.851,-0.743 -13.393,-2.642 -19.706,-5.342 -4.63,-1.98 -8.702,-4.922 -12.562,-8.067 -5.746,-4.681 -10.521,-10.315 -14.537,-16.536 -3.852,-5.968 -6.79,-12.371 -8.723,-19.245 -1.799,-6.401 -2.861,-12.917 -3.442,-19.516 -0.459,-5.208 -0.834,-10.426 -1.097,-15.646 -0.307,-6.114 0.013,-12.194 0.854,-18.28 0.909,-6.583 2.987,-12.723 6.155,-18.495 2.142,-3.901 4.481,-7.702 6.897,-11.441 2.126,-3.29 4.379,-6.512 6.762,-9.621 3.212,-4.191 6.54,-8.299 9.934,-12.345 3.242,-3.862 6.657,-7.579 9.952,-11.397 3.034,-3.516 5.956,-7.129 9.024,-10.614 4.813,-5.467 9.735,-10.838 14.553,-16.3 C -4.479,5.487 -2.284,2.735 0,0 m 2.023,206.109 c 1.317,-0.154 2.635,-0.306 3.952,-0.463 5.071,-0.605 10.213,-0.76 15.166,-2.106 2.891,-0.785 5.7,-1.874 8.547,-2.819 4.251,-1.412 7.899,-3.875 11.534,-6.417 3.357,-2.348 6.478,-4.93 9.372,-7.829 4.768,-4.776 9.09,-9.892 12.491,-15.74 3.112,-5.351 5.83,-10.876 7.17,-16.976 0.894,-4.072 1.876,-8.13 2.613,-12.231 0.578,-3.216 0.863,-6.486 1.237,-9.737 0.939,-8.157 0.903,-16.353 0.756,-24.54 -0.054,-3.02 -0.606,-6.035 -0.997,-9.043 -0.249,-1.924 -0.577,-3.84 -0.943,-5.745 -0.666,-3.464 -1.91,-6.739 -3.32,-9.961 C 67.03,76.627 63.612,71.233 60.273,65.785 56.552,59.714 51.866,54.377 47.509,48.795 43.787,44.027 39.807,39.458 35.926,34.814 32.25,30.415 28.588,26.005 24.854,21.656 23.222,19.756 21.359,18.053 19.716,16.162 17.268,13.344 14.984,10.384 12.517,7.584 9.134,3.742 5.662,-0.024 2.193,-3.79 c -1.535,-1.665 -2.784,-1.673 -4.34,-0.016 -2.027,2.157 -3.986,4.377 -5.962,6.582 -2.171,2.422 -4.412,4.789 -6.473,7.303 -3.25,3.963 -6.692,7.744 -10.183,11.493 -2.177,2.337 -4.084,4.923 -6.142,7.372 -3.399,4.041 -6.869,8.022 -10.223,12.1 -3.996,4.858 -7.847,9.837 -11.861,14.68 -5.228,6.309 -9.419,13.285 -13.433,20.387 -2.722,4.814 -4.93,9.849 -6.26,15.219 -0.625,2.522 -0.977,5.118 -1.322,7.698 -0.371,2.767 -0.751,5.549 -0.837,8.333 -0.135,4.346 -0.146,8.704 0.013,13.049 0.157,4.311 0.575,8.614 0.903,12.919 0.394,5.181 1.226,10.302 2.442,15.345 0.958,3.973 1.845,8.008 3.318,11.8 2.593,6.677 6.219,12.838 10.72,18.439 1.366,1.701 2.857,3.31 4.371,4.883 2.071,2.153 4.165,4.288 6.352,6.32 1.262,1.173 2.68,2.196 4.109,3.167 2.751,1.869 5.418,3.939 8.375,5.413 5.749,2.864 11.793,5.023 18.226,5.811 4.491,0.55 8.997,0.979 13.497,1.468 0.181,0.019 0.357,0.088 0.535,0.134 z"
           style="fill:#ff0000;fill-opacity:1;fill-rule:nonzero;stroke:none;stroke-width:1.00063;stroke-miterlimit:4;stroke-dasharray:none"
           id="path880" />
      </g>
      <g
         id="g882"
         transform="translate(426.0038,679.7331)"
         style="fill:#ff6600">
        <path
           d="m 0,0 c 0,-1.655 -0.108,-3.318 0.03,-4.961 0.14,-1.669 0.491,-3.323 0.803,-4.973 1.292,-6.835 3.766,-13.172 8.038,-18.725 0.827,-1.075 1.66,-2.206 2.706,-3.04 2.581,-2.057 5.224,-4 8.235,-5.484 3.844,-1.895 7.698,-3.747 11.858,-4.748 3.726,-0.896 7.527,-1.522 11.324,-2.069 3.111,-0.449 6.259,-0.684 9.4,-0.863 2.229,-0.128 4.473,-0.008 6.71,0.006 1.627,0.011 3.264,-0.078 4.88,0.069 3.292,0.299 6.573,0.73 9.86,1.103 4.632,0.524 9.184,1.442 13.506,3.211 2.932,1.201 5.789,2.591 8.64,3.978 3.268,1.59 6.17,3.731 8.562,6.461 1.347,1.537 2.468,3.282 3.597,4.996 2.532,3.841 3.918,8.175 5.055,12.57 0.652,2.521 1.192,5.125 1.326,7.716 0.364,7.028 -0.024,14.012 -1.568,20.929 -1.376,6.161 -2.99,12.222 -5.466,18.046 -1.548,3.642 -3.127,7.253 -5.386,10.525 -5.716,8.282 -13.644,13.939 -22.286,18.73 -2.816,1.562 -5.927,2.391 -8.982,3.355 C 64.614,68.797 58.253,69.561 51.8,68.59 44.392,67.476 37.272,65.432 30.925,61.194 27.244,58.737 23.376,56.578 20.162,53.449 16.376,49.763 12.783,45.94 10.319,41.215 6.448,33.791 3.706,25.964 1.951,17.771 0.694,11.906 -0.23,6.019 0,0 m 59.347,-48.737 c -11.59,0.06 -20.9,1.264 -29.964,4.056 -3.334,1.027 -6.537,2.417 -9.687,3.968 -3.495,1.721 -6.743,3.775 -9.838,6.102 -0.615,0.462 -1.193,0.989 -1.718,1.551 -4.646,4.975 -7.785,10.775 -9.556,17.348 -1.304,4.844 -2,9.732 -2.068,14.768 -0.108,7.922 1.182,15.604 3.074,23.253 1.452,5.865 3.715,11.407 6.125,16.904 2.72,6.204 6.792,11.418 11.733,16.036 3.466,3.239 7.442,5.696 11.405,8.218 2.708,1.723 5.367,3.524 8.427,4.55 4.577,1.534 9.143,3.156 13.951,3.812 1.731,0.236 3.509,0.138 5.266,0.173 1.464,0.029 2.93,0.06 4.395,0.037 3.265,-0.05 6.382,-0.897 9.476,-1.833 3.624,-1.097 7.305,-2.04 10.671,-3.851 0.024,-0.013 0.05,-0.02 0.073,-0.033 7.004,-4.254 14.077,-8.41 19.606,-14.645 3.589,-4.049 6.528,-8.502 8.584,-13.517 1.243,-3.034 2.6,-6.035 3.626,-9.143 1.161,-3.514 2.066,-7.116 2.977,-10.706 1.177,-4.642 1.88,-9.37 2.068,-14.155 0.253,-6.472 0.059,-12.916 -1.796,-19.198 -1.196,-4.053 -2.465,-8.096 -4.865,-11.618 -1.633,-2.395 -3.317,-4.837 -5.39,-6.829 -2.093,-2.011 -4.558,-3.739 -7.106,-5.148 -3.63,-2.007 -7.346,-3.89 -11.301,-5.263 -4.325,-1.502 -8.727,-2.623 -13.247,-3.335 -5.645,-0.889 -11.295,-1.684 -14.921,-1.502"
           style="fill:#ff6600;fill-opacity:1;fill-rule:nonzero;stroke:none"
           id="path884" />
      </g>
      <g
         id="g886"
         transform="translate(477.1773,717.8186)"
         style="fill:#ff0000">
        <path
           d="m 0,0 c 3.347,0.118 6.655,-0.266 10.104,0.185 0.03,0.936 0.136,1.788 0.067,2.626 C 10.052,4.236 9.321,5.294 7.885,5.63 6.845,5.873 5.763,6.003 4.695,6.043 0.546,6.198 -1.001,4.305 -0.387,0.533 -0.372,0.439 -0.265,0.359 0,0 m -3.225,5.014 c -0.043,0.556 0.021,0.831 -0.087,0.956 -2.587,2.991 -5.733,5.259 -9.313,6.886 -0.947,0.43 -2.079,0.525 -3.139,0.614 -1.014,0.084 -1.575,-0.443 -1.823,-1.465 -0.102,-0.418 -0.182,-0.855 -0.18,-1.282 0.015,-3.025 0.016,-6.051 0.109,-9.074 0.029,-0.945 0.204,-1.931 1.243,-2.831 4.089,0.339 8.372,0.694 12.816,1.063 -0.21,0.818 -0.39,1.515 -0.537,2.088 -1.695,0.8 -3.529,0.598 -5.214,1.699 1.907,1.711 4.032,1.146 6.125,1.346 m 29.918,8.264 C 25.02,13.66 23.566,13.496 22.156,12.806 18.829,11.178 15.838,9.095 13.343,6.341 13.098,6.07 13.016,5.65 12.782,5.13 14.909,4.699 17.087,5.455 18.902,3.756 17.345,2.368 15.269,2.888 13.71,1.853 13.608,1.284 13.495,0.659 13.341,-0.199 c 4.516,0.088 8.813,-1.231 13.191,-0.743 1.501,3.959 1.591,10.223 0.161,14.22 M 11.862,-15.501 c 0.26,4.351 0.497,8.311 0.74,12.385 -5.173,1.142 -10.167,1.085 -15.198,0.098 0,-2.159 -0.144,-4.205 0.039,-6.222 0.192,-2.105 0.025,-4.289 0.79,-6.261 z m -43.959,10.609 c -0.816,-3.928 -0.041,-7.64 0.018,-11.505 0.887,-0.108 1.611,-0.257 2.339,-0.275 7.457,-0.183 14.875,0.637 22.314,0.916 0.698,0.026 1.386,0.338 2.108,0.525 0,2.13 -0.062,4.064 0.017,5.992 0.084,2.006 0.304,4.007 0.473,6.125 -1.456,0.309 -2.748,0.184 -4.004,-0.013 -5.776,-0.907 -11.587,-1.207 -17.425,-1.262 -1.924,-0.018 -3.845,-0.323 -5.84,-0.503 m 74.079,0.04 c -2.369,0.18 -4.407,0.451 -6.447,0.469 -5.629,0.051 -11.23,0.378 -16.801,1.227 -1.35,0.206 -2.749,0.458 -4.177,-0.042 0.142,-2.042 0.33,-3.961 0.394,-5.885 0.067,-2.035 0.015,-4.074 0.015,-6.134 2.282,-0.945 4.579,-0.549 6.816,-0.716 2.155,-0.162 4.301,-0.449 6.457,-0.555 2.266,-0.112 4.539,-0.107 6.809,-0.093 2.225,0.012 4.48,-0.384 6.809,0.202 0.229,3.833 0.424,7.462 0.125,11.527 M -1.777,-67.117 c 1.694,0.173 3.195,0.385 4.703,0.461 1.4,0.07 2.808,-0.012 4.213,-0.017 1.479,-0.005 2.944,-0.656 4.363,-0.257 0.162,0.349 0.323,0.538 0.327,0.73 0.373,15.601 -0.03,31.198 -0.231,46.797 -0.001,0.103 -0.042,0.22 -0.1,0.306 -0.057,0.085 -0.16,0.139 -0.243,0.207 -4.052,0.633 -10.751,0.524 -13.105,-0.214 -0.484,-4.785 -0.467,-44.552 0.073,-48.013 m 36.561,-0.751 c 0.363,15.882 0.726,31.765 1.095,47.865 -3.351,0.152 -6.797,0.209 -10.224,0.493 -3.541,0.294 -7.08,0.341 -10.783,0.528 -0.395,-2.203 -0.422,-4.245 -0.47,-6.281 -0.182,-7.695 0.084,-15.373 0.97,-23.025 0.136,-1.182 0.192,-2.377 0.208,-3.567 0.067,-4.873 0.101,-9.747 0.162,-14.62 0.002,-0.186 0.155,-0.37 0.239,-0.554 2.782,-0.499 13.418,-1.208 17.764,-1.164 0.297,0.003 0.592,0.18 1.039,0.325 m -60.981,47.836 c 0.316,-15.257 0.95,-30.362 0.931,-45.477 -0.001,-0.648 0.037,-1.296 0.074,-1.944 0.005,-0.092 0.107,-0.182 0.17,-0.269 0.063,-0.085 0.133,-0.165 0.2,-0.247 3.241,-0.347 16.168,0.402 18.774,1.124 0,1.124 -0.017,2.299 0.003,3.474 0.076,4.651 -0.193,9.341 0.322,13.943 1.051,9.39 1.154,18.781 0.907,28.196 -0.019,0.717 -0.234,1.428 -0.383,2.287 -7.044,-0.364 -13.913,-0.72 -20.998,-1.087 m 64.583,0.033 c 0.095,-2.373 0.227,-4.419 0.251,-6.467 0.126,-10.507 0.108,-21.013 -0.415,-31.513 -0.162,-3.244 -0.163,-6.497 -0.251,-9.745 -0.061,-2.289 -0.756,-3.158 -2.935,-3.567 -0.846,-0.158 -1.722,-0.247 -2.581,-0.226 -5.304,0.133 -10.611,0.242 -15.912,0.488 -3.892,0.18 -7.775,0.783 -11.662,0.783 -3.888,0 -7.771,-0.603 -11.663,-0.783 -5.3,-0.246 -10.607,-0.365 -15.912,-0.48 -1.071,-0.024 -2.171,0.106 -3.215,0.348 -1.499,0.348 -2.177,1.247 -2.275,2.752 -0.042,0.648 0.017,1.301 -0.009,1.95 -0.125,3.137 -0.307,6.273 -0.387,9.411 -0.134,5.305 -0.268,10.613 -0.288,15.919 -0.023,6.5 0.074,12.999 0.108,19.499 0.002,0.521 -0.08,1.043 -0.122,1.568 -1.401,0.268 -2.668,0.474 -3.916,0.76 -1.443,0.332 -2.321,1.345 -2.344,2.76 -0.065,3.894 -0.035,7.793 0.082,11.686 0.044,1.47 1.035,2.388 2.511,2.533 2.154,0.211 4.318,0.322 6.479,0.456 1.497,0.093 2.997,0.153 4.637,0.234 -0.396,4.55 0.538,8.774 1.093,13.034 0.538,4.132 2.611,6.144 7.304,4.717 4.346,-1.32 8.538,-3.195 11.418,-7.04 0.255,-0.341 0.553,-0.649 0.943,-1.103 3.642,1.267 7.339,1.653 10.973,-0.143 0.645,0.782 1.108,1.366 1.595,1.929 1.288,1.489 2.77,2.735 4.551,3.608 1.36,0.668 2.667,1.466 4.073,2.014 1.296,0.505 2.672,0.936 4.047,1.078 2.928,0.303 4.58,-0.842 5.173,-3.709 0.592,-2.857 0.976,-5.765 1.282,-8.668 0.181,-1.713 0.033,-3.46 0.033,-5.36 0.645,-0.169 1.229,-0.423 1.827,-0.461 2.269,-0.145 4.543,-0.212 6.814,-0.326 0.757,-0.038 1.518,-0.086 2.264,-0.207 1.998,-0.324 2.675,-0.955 2.814,-2.925 0.152,-2.156 0.166,-4.323 0.184,-6.486 0.012,-1.516 -0.016,-3.036 -0.121,-4.547 -0.135,-1.933 -0.763,-2.651 -2.66,-3.175 -0.622,-0.172 -1.271,-0.251 -1.911,-0.352 -0.522,-0.083 -1.048,-0.138 -1.877,-0.244"
           style="fill:#000000;fill-opacity:1;fill-rule:nonzero;stroke:none"
           id="path888" />
      </g>
    </g>
  </g>
</svg>
