<?xml version="1.0" encoding="UTF-8" standalone="no"?>
<svg
   id="svg2"
   viewBox="0 0 499.99999 500.00001"
   version="1.1"
   sodipodi:docname="restaurant.svg"
   inkscape:version="1.1.1 (3bf5ae0d25, 2021-09-20)"
   xmlns:inkscape="http://www.inkscape.org/namespaces/inkscape"
   xmlns:sodipodi="http://sodipodi.sourceforge.net/DTD/sodipodi-0.dtd"
   xmlns="http://www.w3.org/2000/svg"
   xmlns:svg="http://www.w3.org/2000/svg"
   xmlns:rdf="http://www.w3.org/1999/02/22-rdf-syntax-ns#"
   xmlns:cc="http://creativecommons.org/ns#"
   xmlns:dc="http://purl.org/dc/elements/1.1/">
  <defs
     id="defs1497" />
  <sodipodi:namedview
     id="namedview1495"
     pagecolor="#ffffff"
     bordercolor="#666666"
     borderopacity="1.0"
     inkscape:pageshadow="2"
     inkscape:pageopacity="0.0"
     inkscape:pagecheckerboard="0"
     showgrid="false"
     inkscape:zoom="1.438"
     inkscape:cx="181.84979"
     inkscape:cy="250"
     inkscape:window-width="1920"
     inkscape:window-height="1027"
     inkscape:window-x="-8"
     inkscape:window-y="-8"
     inkscape:window-maximized="1"
     inkscape:current-layer="svg2" />
  <path
     id="path13"
     d="M 249.84815,9.3438293 H 34.420843 c -10.227318,0 -18.518458,8.5236717 -18.518458,19.0376077 V 471.31472 c 0,10.51307 8.291234,19.03761 18.518458,19.03761 H 465.27547 c 10.22731,0 18.51846,-8.52465 18.51846,-19.03761 V 28.381437 c 0,-10.514033 -8.29125,-19.0376077 -18.51846,-19.0376077 z"
     stroke="#000000"
     stroke-width="6.77821"
     fill="#ffffff"
     style="fill-rule:evenodd" />
  <g
     id="g3054"
     transform="matrix(1.2818232,0,0,1.2817323,-35.858356,-65.277269)"
     style="fill-rule:evenodd;stroke-width:0.84609">
    <path
       id="path99"
       d="m 233.19,131.28 c 64.703,0 117.22,52.513 117.22,117.22 0,64.703 -52.514,117.22 -117.22,117.22 -64.704,0 -117.22,-52.513 -117.22,-117.22 0,-64.704 52.512,-117.22 117.22,-117.22"
       style="stroke-width:0.84609" />
    <path
       id="path101"
       fill="#ffffff"
       d="m 233.07,142.94 c 58.264,0 105.55,47.288 105.55,105.55 0,58.264 -47.289,105.55 -105.55,105.55 -58.265,0 -105.55,-47.287 -105.55,-105.55 0,-58.265 47.288,-105.55 105.55,-105.55"
       style="stroke-width:0.775817" />
    <path
       id="path103"
       d="m 233.19,153.06 c 52.682,0 95.438,42.755 95.438,95.436 0,52.681 -42.756,95.436 -95.438,95.436 -52.68,0 -95.436,-42.755 -95.436,-95.436 0,-52.681 42.756,-95.436 95.436,-95.436"
       style="stroke-width:0.84609" />
    <path
       id="path105"
       fill="#ffffff"
       d="m 233.19,159.83 c 48.945,0 88.668,39.723 88.668,88.668 0,48.944 -39.723,88.668 -88.668,88.668 -48.944,0 -88.667,-39.724 -88.667,-88.668 0,-48.945 39.724,-88.668 88.667,-88.668"
       style="stroke-width:0.775817" />
    <path
       id="path107"
       d="m 109.65,204.02 c 0,7.74 -7.092,16.092 -16.271,16.092 v 131.08 c 0,18.612 -25.345,18.612 -25.345,0 v -131.08 c -8.928,0 -16.704,-6.912 -16.704,-17.208 V 130.76 c 0,-6.264 9.072,-6.516 9.072,0.252 v 53.316 h 7.596 v -53.82 c 0,-5.76 8.713,-6.12 8.713,0.252 v 53.568 h 7.883 V 130.58 c 0,-6.012 8.461,-6.264 8.461,0.252 v 53.496 h 7.74 V 130.58 c 0,-5.94 8.855,-6.192 8.855,0.252 z"
       style="stroke-width:0.84609" />
    <path
       id="path109"
       d="m 394.45,147.54 v 203.58 c 0,18.18 -25.379,17.928 -25.379,0 v -80.79 h -13.54 V 147.54 c 0,-28.584 38.916,-28.584 38.916,0 z"
       style="stroke-width:0.84609" />
    <path
       id="path111"
       fill="#ffffff"
       d="m 80.853,201.54 h -1.529 c -3.37,0 -6.102,2.732 -6.102,6.102 v 145.4 c 0,3.37 2.731,6.102 6.102,6.102 h 3.061 c 3.369,0 6.102,-2.731 6.102,-6.102 v -145.4 c 0,-3.37 -2.732,-6.102 -6.102,-6.102 z"
       style="stroke-width:0.775817" />
    <path
       id="path113"
       fill="#ffffff"
       d="m 382.14,243.8 h -1.531 c -3.369,0 -6.102,1.998 -6.102,4.464 v 106.42 c 0,2.466 2.732,4.464 6.102,4.464 h 3.061 c 3.371,0 6.102,-1.998 6.102,-4.464 v -106.42 c 0,-2.466 -2.73,-4.464 -6.102,-4.464 z"
       style="stroke-width:0.775817" />
  </g>
  <metadata
     id="metadata1492">
    <rdf:RDF>
      <cc:Work>
        <dc:format>image/svg+xml</dc:format>
        <dc:type
           rdf:resource="http://purl.org/dc/dcmitype/StillImage" />
        <cc:license
           rdf:resource="http://creativecommons.org/publicdomain/zero/1.0/" />
      </cc:Work>
      <cc:License
         rdf:about="http://creativecommons.org/publicdomain/zero/1.0/">
        <cc:permits
           rdf:resource="http://creativecommons.org/ns#Reproduction" />
        <cc:permits
           rdf:resource="http://creativecommons.org/ns#Distribution" />
        <cc:permits
           rdf:resource="http://creativecommons.org/ns#DerivativeWorks" />
      </cc:License>
    </rdf:RDF>
  </metadata>
</svg>
